<?xml version="1.0" encoding="UTF-8" standalone="no"?>
<!DOCTYPE svg PUBLIC "-//W3C//DTD SVG 1.1//EN" "http://www.w3.org/Graphics/SVG/1.1/DTD/svg11.dtd">
<svg width="100%" height="100%" viewBox="0 0 100 125" version="1.1" xmlns="http://www.w3.org/2000/svg" xmlns:xlink="http://www.w3.org/1999/xlink" xml:space="preserve" xmlns:serif="http://www.serif.com/" style="fill-rule:evenodd;clip-rule:evenodd;stroke-linejoin:round;stroke-miterlimit:1.41421;">
    <g>
        <path d="M68.416,68.793L76.996,68.793C81.559,68.793 85.271,64.711 85.271,59.694C85.271,54.677 81.559,50.596 76.996,50.596L74.204,50.596C74.215,50.296 74.228,49.998 74.228,49.688L74.228,44.678C74.228,43.8 73.516,43.088 72.638,43.088L19.158,43.088C18.28,43.088 17.568,43.8 17.568,44.678L17.568,49.688C17.568,60.558 22.638,70.564 30.625,76.305L19.284,76.305C16.773,76.305 14.729,78.348 14.729,80.86L14.729,81.214C14.729,83.726 16.772,85.769 19.284,85.769L72.519,85.769C75.03,85.769 77.074,83.726 77.074,81.214L77.074,80.86C77.074,78.348 75.031,76.305 72.519,76.305L61.164,76.305C63.943,74.314 66.387,71.776 68.416,68.793ZM76.996,53.776C79.806,53.776 82.091,56.43 82.091,59.694C82.091,62.958 79.805,65.613 76.996,65.613L70.33,65.613C72.236,61.982 73.472,57.96 73.958,53.776L76.996,53.776ZM72.519,79.485C73.277,79.485 73.894,80.102 73.894,80.86L73.894,81.214C73.894,81.972 73.277,82.589 72.519,82.589L19.284,82.589C18.526,82.589 17.909,81.972 17.909,81.214L17.909,80.86C17.909,80.102 18.526,79.485 19.284,79.485L72.519,79.485ZM54.722,76.306L37.034,76.306C27.283,72.14 20.747,61.489 20.747,49.689L20.747,46.269L71.047,46.269L71.047,49.689C71.047,50.324 71.013,50.946 70.974,51.549C70.888,51.745 70.839,51.96 70.839,52.187C70.839,52.318 70.86,52.444 70.89,52.566C70.458,57.407 68.93,62.035 66.445,66.013C66.228,66.203 66.066,66.45 65.978,66.732C63.082,71.095 59.206,74.396 54.722,76.306Z" style="fill-rule:nonzero; fill: #fff;"/>
        <path d="M26.221,50.936C26.221,50.058 25.509,49.346 24.631,49.346C23.753,49.346 23.041,50.058 23.041,50.936C23.041,57.349 25.399,63.389 29.68,67.944C29.993,68.277 30.415,68.445 30.839,68.445C31.229,68.445 31.62,68.301 31.927,68.013C32.567,67.411 32.598,66.406 31.996,65.766C28.273,61.803 26.221,56.536 26.221,50.936Z" style="fill-rule:nonzero; fill: #fff;"/>
        <path d="M33.077,35.274C33.077,34.29 33.741,33.458 34.527,33.458L52.391,33.458C54.874,33.458 56.894,31.273 56.894,28.588C56.894,25.903 54.874,23.719 52.391,23.719L46.435,23.719C45.649,23.719 44.985,22.887 44.985,21.903L44.985,19.1C44.985,18.098 45.635,17.284 46.435,17.284L67.93,17.284L67.93,14.23L46.436,14.23C43.953,14.23 41.933,16.415 41.933,19.099L41.933,21.902C41.933,24.587 43.953,26.771 46.436,26.771L52.392,26.771C53.178,26.771 53.842,27.603 53.842,28.587C53.842,29.572 53.178,30.404 52.392,30.404L34.528,30.404C32.045,30.404 30.025,32.589 30.025,35.273L30.025,40.252L33.078,40.252L33.078,35.274L33.077,35.274Z" style="fill-rule:nonzero; fill: #fff;"/>
        <rect x="70.974" y="14.23" width="5.76" height="3.053" style="fill: #fff;"/>
        <rect x="61.372" y="22.912" width="12.482" height="3.48" style="fill: #fff;"/>
    </g>
</svg>
