<?xml version="1.0" encoding="UTF-8" standalone="no"?>
<!DOCTYPE svg PUBLIC "-//W3C//DTD SVG 1.1//EN" "http://www.w3.org/Graphics/SVG/1.1/DTD/svg11.dtd">
<svg width="100%" height="100%" viewBox="0 0 64 80" version="1.1" xmlns="http://www.w3.org/2000/svg" xmlns:xlink="http://www.w3.org/1999/xlink" xml:space="preserve" xmlns:serif="http://www.serif.com/" style="fill-rule:evenodd;clip-rule:evenodd;stroke-linejoin:round;stroke-miterlimit:1.41421;">
    <g>
        <path d="M54,7L63,7L63,1L54,1C50.141,1 47,4.14 47,8L47,15L42,15L42,10C42,7.243 39.757,5 37,5L35.65,5C34.824,2.673 32.607,1 30,1C26.691,1 24,3.691 24,7C24,10.309 26.691,13 30,13C33.309,13 36,10.309 36,7L37,7C38.654,7 40,8.346 40,10L40,15L35,15L35,20.609C35,23.45 34.688,26.297 34.071,29.069L33.302,32.527C33.102,33.433 33,34.36 33,35.286C33,36.205 33.103,37.1 33.29,37.965C31.195,35.635 28.394,33.989 25.238,33.33C25.712,32.673 26,31.872 26,31C26,28.794 24.206,27 22,27C19.794,27 18,28.794 18,31C18,31.872 18.288,32.673 18.763,33.331C17.968,33.497 17.194,33.72 16.449,34.006L7.566,24.235C6.852,23.45 5.834,23 4.773,23C2.692,23 1,24.693 1,26.773L1,26.927C1,27.868 1.349,28.77 1.981,29.466L10.219,38.529C8.624,40.492 7.506,42.878 7.063,45.534L6.153,51L4,51C2.346,51 1,52.346 1,54C1,55.654 2.346,57 4,57L5.704,57L5.336,59.575C5.213,60.437 5.47,61.308 6.04,61.966C6.61,62.624 7.436,63 8.306,63L35.695,63C36.565,63 37.39,62.623 37.961,61.966C38.532,61.309 38.788,60.438 38.665,59.575L38.296,57L40,57C41.654,57 43,55.654 43,54C43,52.346 41.654,51 40,51L37.847,51L36.936,45.534C36.86,45.076 36.763,44.625 36.647,44.184C38.779,46.356 41.682,47.756 44.908,47.959L44.087,57L43,57C41.346,57 40,58.346 40,60C40,61.654 41.346,63 43,63L53,63C54.654,63 56,61.654 56,60C56,58.346 54.654,57 53,57L51.913,57L51.091,47.959C57.727,47.54 63,42.025 63,35.286C63,34.36 62.898,33.432 62.697,32.528L61.928,29.07C61.312,26.296 61,23.45 61,20.609L61,15L53,15L53,8C53,7.449 53.448,7 54,7ZM26,7C26,5.142 27.279,3.589 29,3.142L29,10.858C27.279,10.411 26,8.858 26,7ZM31,10.858L31,3.142C32.721,3.589 34,5.142 34,7C34,8.858 32.721,10.411 31,10.858ZM61,5L59,5L59,3L61,3L61,5ZM33,40.855L33,43C33,44.103 32.103,45 31,45C29.897,45 29,44.103 29,43C29,40.794 27.206,39 25,39C22.794,39 21,40.794 21,43L21,45C21,46.103 20.097,47 18.91,47C17.856,47 17,46.144 17,45C17,43.346 15.654,42 14,42L11,42C10.789,42 10.594,41.929 10.429,41.813C12.643,37.705 16.955,35 21.859,35L22.14,35C26.652,35 30.662,37.291 33,40.855ZM22,29C23.103,29 24,29.897 24,31C24,32.103 23.103,33 22,33C20.897,33 20,32.103 20,31C20,29.897 20.897,29 22,29ZM3,26.928L3,26.774C3,25.795 3.796,25 4.773,25C5.271,25 5.75,25.211 6.085,25.581L14.554,34.897C13.478,35.496 12.486,36.225 11.592,37.064L3.461,28.12C3.164,27.793 3,27.37 3,26.928ZM41,54C41,54.552 40.552,55 40,55L34,55L34,57L36.275,57L36.684,59.858C36.726,60.149 36.642,60.432 36.45,60.655C36.256,60.878 35.988,61 35.694,61L8.306,61C8.012,61 7.744,60.878 7.551,60.655C7.359,60.432 7.275,60.149 7.317,59.858L7.725,57L32,57L32,55L4,55C3.448,55 3,54.552 3,54C3,53.448 3.448,53 4,53L40,53C40.552,53 41,53.448 41,54ZM8.18,51L9.036,45.862C9.164,45.094 9.359,44.354 9.61,43.642C10.034,43.866 10.507,44 11,44L14,44C14.552,44 15,44.448 15,45.09C15,47.246 16.754,49 18.985,49C21.199,49 23,47.206 23,45L23,43C23,41.897 23.897,41 25,41C26.103,41 27,41.897 27,43C27,45.206 28.794,47 31,47C32.648,47 34.064,45.998 34.676,44.572C34.791,44.994 34.89,45.423 34.963,45.862L35.82,51L8.18,51ZM54,60C54,60.552 53.552,61 53,61L43,61C42.448,61 42,60.552 42,60C42,59.448 42.448,59 43,59L53,59C53.552,59 54,59.448 54,60ZM46.095,57L46.913,48L49.086,48L49.904,57L46.095,57ZM61,35.286C61,41.193 56.193,46 50.286,46L45.714,46C39.807,46 35,41.193 35,35.286C35,34.506 35.086,33.724 35.256,32.961L36.025,29.503C36.335,28.108 36.567,26.695 36.729,25.274C37.775,25.551 39.515,25.893 41.767,25.893C43.628,25.893 45.835,25.659 48.275,24.962C53.744,23.4 57.95,24.408 59.222,24.795C59.384,26.378 59.632,27.952 59.976,29.504L60.745,32.963C60.914,33.724 61,34.506 61,35.286ZM59,17L59,20.609C59,21.297 59.022,21.985 59.057,22.672C57.056,22.172 52.928,21.552 47.726,23.038C42.44,24.547 38.325,23.655 36.907,23.243C36.963,22.366 37,21.488 37,20.609L37,17L59,17ZM49,15L49,8C49,5.243 51.243,3 54,3L57,3L57,5L54,5C52.346,5 51,6.346 51,8L51,15L49,15Z" style="fill-rule:nonzero; fill:#fff"/>
        <path d="M39.688,38.245L37.895,39.13C39.375,42.134 42.373,44 45.714,44L47,44L47,42L45.714,42C43.139,42 40.83,40.562 39.688,38.245Z" style="fill-rule:nonzero; fill: #fff;"/>
        <path d="M39.006,35.188L39.015,35.041L37.011,35.041C37.005,35.123 37,35.204 37,35.286C37,35.939 37.073,36.592 37.218,37.225L39.167,36.78C39.057,36.293 39,35.791 39.006,35.188Z" style="fill-rule:nonzero; fill: #fff;"/>
    </g>
    <g transform="matrix(1,0,0,1,0,84)">
        <text x="0px" y="0px" style="font-family:'HelveticaNeue-Bold', 'Helvetica Neue';font-weight:700;font-size:5px;">from the Noun Project</text>
    </g>
</svg>
