<?xml version="1.0" encoding="UTF-8" standalone="no"?>
<!DOCTYPE svg PUBLIC "-//W3C//DTD SVG 1.1//EN" "http://www.w3.org/Graphics/SVG/1.1/DTD/svg11.dtd">
<svg width="100%" height="100%" viewBox="0 0 100 125" version="1.1" xmlns="http://www.w3.org/2000/svg" xmlns:xlink="http://www.w3.org/1999/xlink" xml:space="preserve" xmlns:serif="http://www.serif.com/" style="fill-rule:evenodd;clip-rule:evenodd;stroke-linejoin:round;stroke-miterlimit:1.41421;">
    <g transform="matrix(1,0,0,1,7.00166,14.9914)">
        <path d="M16.016,0C11.622,0 8.008,3.65 8.008,8.008C8.008,12.402 11.622,16.016 16.016,16.016C20.374,16.016 23.988,12.402 23.988,8.008C23.988,3.65 20.374,0 16.016,0ZM70.016,0C65.622,0 62.008,3.65 62.008,8.008C62.008,12.402 65.622,16.016 70.016,16.016C74.374,16.016 77.988,12.402 77.988,8.008C77.988,3.65 74.374,0 70.016,0ZM16.016,16.972C10.984,17.043 8.079,21.083 8.008,24.98L8.008,40.075C8.008,42.555 8.681,44.965 10.382,46.665C12.083,48.331 14.457,49.004 16.937,49.004L21.756,49.004L21.402,50.988C17.22,50.917 12.827,51.13 8.681,50.953C7.441,50.917 6.909,50.634 6.626,50.386C6.343,50.067 5.988,49.465 5.988,47.941L5.988,23.988C6.024,22.394 4.571,20.941 2.976,20.941C1.382,20.976 0,22.429 0,23.988L0,47.941C0,50.457 0.673,52.902 2.374,54.638C3.26,55.524 4.358,56.161 5.563,56.516L4.039,66.579C3.791,68.102 4.996,69.732 6.555,69.98C8.114,70.228 9.744,69.024 9.957,67.465L11.587,57.012L20.339,57.012L19.028,64.488C18.815,65.764 19.524,67.11 20.657,67.677C25.937,70.37 30.933,70.441 36,68.209C40.819,70.512 45.461,70.228 49.996,68.209C54.921,70.299 61.087,70.724 65.339,68.705C66.472,68.138 67.181,66.756 66.969,65.516L65.516,57.012L74.409,57.012L76.039,67.465C76.252,69.024 77.882,70.228 79.441,69.98C81,69.732 82.205,68.102 81.957,66.579L80.433,56.516C81.638,56.161 82.736,55.524 83.622,54.638C85.323,52.902 85.996,50.457 85.996,47.941L85.996,23.988C86.031,22.394 84.543,20.941 82.984,20.941C81.39,20.976 79.972,22.429 80.008,23.988L80.008,47.941C80.008,49.465 79.654,50.067 79.37,50.386C79.087,50.634 78.555,50.917 77.244,50.953C73.063,51.024 68.705,50.988 64.453,50.988L64.134,49.004L69.059,49.004C71.539,49.004 73.949,48.331 75.614,46.665C77.315,44.965 77.988,42.555 77.988,40.075L77.988,24.98C77.988,20.126 74.87,16.972 70.016,16.972C65.126,17.079 62.079,20.091 62.008,24.98L62.008,36L61.902,36L60.98,30.508C60.732,29.091 59.421,27.992 58.004,27.992L27.992,27.992C26.61,27.992 25.264,29.091 25.016,30.508L24.059,36L23.988,36L23.988,24.98C23.988,20.976 20.976,17.079 16.016,16.972L16.016,16.972ZM30.543,33.98L55.453,33.98L60.555,63.78C57.898,64.24 55.311,63.815 53.008,63L53.008,57.012C53.008,55.417 51.555,53.965 49.961,53.965C48.402,54 46.984,55.417 46.984,57.012L46.984,63C44.185,64.276 41.563,63.921 39.012,63L39.012,54.992C39.012,53.398 37.559,51.945 35.965,51.98C34.406,51.98 32.988,53.433 32.988,54.992L32.988,63C30.189,64.346 27.957,63.78 25.441,62.929L30.543,33.98Z" style="fill-rule:nonzero; fill: #fff"/>
    </g>
</svg>
